# xmcd CD database file
#
# Track frame offsets:
#	150
#	41612
#	94957
#	146731
#	201577
#	236084
#	278541
#
# Disc length: 4207 seconds
#
# Revision: 0
# Processed by: cddbd v1.5.2PL0 Copyright (c) Steve Scherf et al.
# Submitted via: CDex 1.70beta2
#
DISCID=68106d07
DTITLE=Klemens Marktl Free Spirit Quartet - Live
DYEAR=2009
DGENRE=Jazz
TTITLE0=The Opener
TTITLE1=Wiedergeburtstagsorganisationsblues
TTITLE2=Darkness
TTITLE3=Bobby
TTITLE4=Sounds Of A City
TTITLE5=Song For Rosa
TTITLE6=When Eric Met Ornette
EXTD=YEAR: 2009
EXTT0=
EXTT1=
EXTT2=
EXTT3=
EXTT4=
EXTT5=
EXTT6=
PLAYORDER=
